# xmcd
#
# Track frame offsets:
#	150
#	16843
#	35871
#	54855
#	71090
#	92321
#	108018
#	126820
#	144273
#	159528
#	175135
#	191344
#	208845
#	225477
#	245231
#	263925
#	280200
#	297022
#
# Disc length: 4249 seconds
#
# Revision: 2
# Processed by: cddbd v1.5.2PL0 Copyright (c) Steve Scherf et al.
# Submitted via: audiograbber 1.83.01
#
DISCID=f9109712
DTITLE=Various Artist - SFG359
DYEAR=2016
DGENRE=Karaoke
TTITLE0=Louisa Johnson - Forever young
TTITLE1=Justin Bieber - Love yourself
TTITLE2=Sigala - Sweet lovin'
TTITLE3=Grace f. G Easy - You don't know me
TTITLE4=Grimes - Flesh without blood
TTITLE5=Martin Solveig f. Sam White - +1
TTITLE6=Weeknd - In the night
TTITLE7=Alessia Cara - Here
TTITLE8=One Direction - History
TTITLE9=David Guetta f. Sia and Fetty Wap - Bang my head
TTITLE10=X Ambassadors - Renegades
TTITLE11=Corrs - Bring on the night
TTITLE12=Demi Lovato - Confident
TTITLE13=Little Mix f. Jason Derulo - Secret love song
TTITLE14=Selena Gomez - Same old love
TTITLE15=Disclosure f. Lorde - Magnets
TTITLE16=Pia Mia - Touch
TTITLE17=Seal - Do you ever
EXTD=
EXTT0=
EXTT1=
EXTT2=
EXTT3=
EXTT4=
EXTT5=
EXTT6=
EXTT7=
EXTT8=
EXTT9=
EXTT10=
EXTT11=
EXTT12=
EXTT13=
EXTT14=
EXTT15=
EXTT16=
EXTT17=
PLAYORDER=
